<svg xmlns="http://www.w3.org/2000/svg" version="1.1" xmlns:xlink="http://www.w3.org/1999/xlink" xmlns:svgjs="http://svgjs.dev/svgjs" width="1000" height="487" viewBox="0 0 1000 487"><g transform="matrix(1,0,0,1,-0.6060606060606233,-0.4967098179939171)"><svg viewBox="0 0 396 193" data-background-color="#1f0f53" preserveAspectRatio="xMidYMid meet" height="487" width="1000" xmlns="http://www.w3.org/2000/svg" xmlns:xlink="http://www.w3.org/1999/xlink"><defs></defs><g id="tight-bounds" transform="matrix(1,0,0,1,0.2400000000000091,0.19747673507134778)"><svg viewBox="0 0 395.52 192.60567522617538" height="192.60567522617538" width="395.52"><g><svg viewBox="0 0 395.52 192.60567522617538" height="192.60567522617538" width="395.52"><g transform="matrix(1,0,0,1,0,116.09809451549717)"><svg viewBox="0 0 395.52 76.50758071067823" height="76.50758071067823" width="395.52"><g><svg viewBox="0 0 395.52 76.50758071067823" height="76.50758071067823" width="395.52"><g><svg viewBox="0 0 395.52 43.90373427768958" height="43.90373427768958" width="395.52"><g transform="matrix(1,0,0,1,0,0)"><svg width="395.52" viewBox="-1.75 -34.3 409.41 45.449999999999996" height="43.90373427768958" data-palette-color="#ffdb99"><path d="M9.45-33.85L9.45-1.25Q9.45 1.75 8.63 3.78 7.8 5.8 6.53 7.2 5.25 8.6 3.68 9.5 2.1 10.4 0.6 11.15L0.6 11.15-1.75 7.2Q0.2 6.25 1.28 5.18 2.35 4.1 2.85 3.08 3.35 2.05 3.43 1.1 3.5 0.15 3.5-0.65L3.5-0.65 3.5-33.85 9.45-33.85ZM26.2-34.3L26.2-34.3Q27.95-34.3 29.55-33.98 31.15-33.65 32.47-33.23 33.8-32.8 34.72-32.35 35.65-31.9 36-31.65L36-31.65 33.55-27.35 32.9-27.7Q32.25-28.05 31.2-28.5 30.15-28.95 28.9-29.3 27.65-29.65 26.5-29.65L26.5-29.65Q24.7-29.65 23.37-28.8 22.05-27.95 22.05-26.15L22.05-26.15Q22.05-23.9 23.5-22.48 24.95-21.05 28.05-19.85L28.05-19.85Q30.05-19.05 31.62-18.18 33.2-17.3 34.3-16.15 35.4-15 35.97-13.5 36.55-12 36.55-9.9L36.55-9.9Q36.55-8 35.82-6.15 35.1-4.3 33.67-2.88 32.25-1.45 30.15-0.58 28.05 0.3 25.3 0.3L25.3 0.3Q23.35 0.3 21.6-0.1 19.85-0.5 18.42-1.03 17-1.55 15.97-2.1 14.95-2.65 14.45-2.95L14.45-2.95 16.55-7.55 17.45-7.05Q18.35-6.55 19.65-5.95 20.95-5.35 22.4-4.85 23.85-4.35 24.9-4.35L24.9-4.35Q27.55-4.35 28.85-5.65 30.15-6.95 30.15-9.3L30.15-9.3Q30.15-10.4 29.8-11.23 29.45-12.05 28.8-12.65 28.15-13.25 27.22-13.73 26.3-14.2 25.15-14.65L25.15-14.65Q22.9-15.6 21.12-16.55 19.35-17.5 18.1-18.73 16.85-19.95 16.2-21.53 15.55-23.1 15.55-25.3L15.55-25.3Q15.55-27.15 16.35-28.78 17.15-30.4 18.55-31.63 19.95-32.85 21.9-33.58 23.85-34.3 26.2-34.3ZM80.79 0L74.09-20.55Q73.34-22.6 72.89-24.55L72.89-24.55Q72.64-23.6 72.42-22.65 72.19-21.7 71.84-20.55L71.84-20.55 65.34 0 60.94 0 51.54-33.85 57.49-33.85 61.89-16.9Q63.04-12.5 63.54-9.8L63.54-9.8Q63.89-11.2 64.37-12.9 64.84-14.6 65.54-16.8L65.54-16.8 70.84-33.85 75.29-33.85 80.59-16.8Q81.29-14.55 81.79-12.7 82.29-10.85 82.59-9.45L82.59-9.45Q82.79-10.85 83.17-12.7 83.54-14.55 84.14-16.8L84.14-16.8 88.54-33.85 94.59-33.85 85.19 0 80.79 0ZM97.99 0L97.99-33.85 118.09-33.85 118.09-29.35 103.94-29.35 103.94-19.9 115.59-19.9 114.84-15.35 103.94-15.35 103.94-4.5 118.84-4.5 118.84 0 97.99 0ZM123.64 0L123.64-33.85Q123.99-33.85 125.24-33.88 126.49-33.9 128.04-33.9 129.59-33.9 131.14-33.93 132.69-33.95 133.69-33.95L133.69-33.95Q139.49-33.95 142.51-31.65 145.54-29.35 145.54-25.15L145.54-25.15Q145.54-22.7 144.19-20.75 142.84-18.8 140.44-17.6L140.44-17.6Q143.44-16.45 145.01-14.35 146.59-12.25 146.59-9.5L146.59-9.5Q146.59-5.2 143.34-2.58 140.09 0.05 133.49 0.05L133.49 0.05Q132.14 0.05 130.59 0.05 129.04 0.05 127.64 0.03 126.24 0 125.16 0 124.09 0 123.64 0L123.64 0ZM129.59-15.15L129.59-4.25 133.89-4.25Q137.29-4.25 138.76-5.78 140.24-7.3 140.24-9.6L140.24-9.6Q140.24-10.65 139.91-11.65 139.59-12.65 138.79-13.45 137.99-14.25 136.66-14.73 135.34-15.2 133.34-15.2L133.34-15.2Q132.14-15.2 131.21-15.2 130.29-15.2 129.59-15.15L129.59-15.15ZM129.59-29.65L129.59-19.45 133.44-19.45Q136.59-19.45 137.94-20.9 139.29-22.35 139.29-24.45L139.29-24.45Q139.29-25.4 138.99-26.35 138.69-27.3 137.96-28.05 137.24-28.8 136.01-29.25 134.79-29.7 132.94-29.7L132.94-29.7Q131.84-29.7 131.01-29.7 130.19-29.7 129.59-29.65L129.59-29.65ZM164.63 0L164.63-33.85Q164.98-33.85 166.13-33.88 167.28-33.9 168.73-33.9 170.18-33.9 171.73-33.93 173.28-33.95 174.43-33.95L174.43-33.95Q182.93-33.95 187.03-29.73 191.13-25.5 191.13-17.15L191.13-17.15Q191.13-8.8 186.93-4.35 182.73 0.1 173.78 0.1L173.78 0.1Q172.23 0.1 170.76 0.08 169.28 0.05 168.06 0.05 166.83 0.05 165.93 0.03 165.03 0 164.63 0L164.63 0ZM173.73-29.5Q172.58-29.5 171.81-29.48 171.03-29.45 170.58-29.45L170.58-29.45 170.58-4.4Q171.13-4.35 172.01-4.35 172.88-4.35 174.53-4.35L174.53-4.35Q179.78-4.35 182.23-7.43 184.68-10.5 184.68-16.6L184.68-16.6Q184.68-19.5 184.11-21.88 183.53-24.25 182.21-25.95 180.88-27.65 178.81-28.58 176.73-29.5 173.73-29.5L173.73-29.5ZM196.78 0L196.78-33.85 216.88-33.85 216.88-29.35 202.73-29.35 202.73-19.9 214.38-19.9 213.63-15.35 202.73-15.35 202.73-4.5 217.63-4.5 217.63 0 196.78 0ZM248.48-33.85L235.83 0 231.18 0 218.53-33.85 224.88-33.85 229.08-21.75Q230.68-17.05 231.83-13.48 232.98-9.9 233.58-8L233.58-8Q234.13-9.9 235.25-13.38 236.38-16.85 238.08-21.65L238.08-21.65 242.43-33.85 248.48-33.85ZM251.53 0L251.53-33.85 271.63-33.85 271.63-29.35 257.48-29.35 257.48-19.9 269.13-19.9 268.38-15.35 257.48-15.35 257.48-4.5 272.38-4.5 272.38 0 251.53 0ZM277.17 0L277.17-33.85 283.12-33.85 283.12-4.5 295.77-4.5 295.77 0 277.17 0ZM310.32-34.3Q314.07-34.3 316.72-33.1 319.37-31.9 321.1-29.7 322.82-27.5 323.62-24.33 324.42-21.15 324.42-17.2L324.42-17.2Q324.42-13.3 323.55-10.08 322.67-6.85 320.85-4.55 319.02-2.25 316.25-0.98 313.47 0.3 309.67 0.3L309.67 0.3Q305.92 0.3 303.25-0.83 300.57-1.95 298.85-4.13 297.12-6.3 296.32-9.4 295.52-12.5 295.52-16.5L295.52-16.5Q295.52-20.4 296.4-23.68 297.27-26.95 299.1-29.33 300.92-31.7 303.72-33 306.52-34.3 310.32-34.3L310.32-34.3ZM309.62-29.7Q307.42-29.7 305.97-28.73 304.52-27.75 303.62-26.05 302.72-24.35 302.35-22.05 301.97-19.75 301.97-17.05L301.97-17.05Q301.97-14.5 302.32-12.2 302.67-9.9 303.6-8.15 304.52-6.4 306.15-5.35 307.77-4.3 310.37-4.3L310.37-4.3Q312.52-4.3 314-5.25 315.47-6.2 316.37-7.85 317.27-9.5 317.65-11.78 318.02-14.05 318.02-16.7L318.02-16.7Q318.02-19.25 317.67-21.6 317.32-23.95 316.4-25.75 315.47-27.55 313.85-28.63 312.22-29.7 309.62-29.7L309.62-29.7ZM330.17 0L330.17-33.85Q330.52-33.85 331.77-33.88 333.02-33.9 334.57-33.9 336.12-33.9 337.67-33.93 339.22-33.95 340.22-33.95L340.22-33.95Q346.32-33.95 349.22-31.23 352.12-28.5 352.12-23.75L352.12-23.75Q352.12-21.45 351.32-19.53 350.52-17.6 348.94-16.2 347.37-14.8 345.04-14.03 342.72-13.25 339.62-13.25L339.62-13.25 336.12-13.25 336.12 0 330.17 0ZM336.12-29.65L336.12-17.7 339.97-17.7Q343.12-17.7 344.47-19.35 345.82-21 345.82-23.55L345.82-23.55Q345.82-24.7 345.52-25.8 345.22-26.9 344.49-27.78 343.77-28.65 342.54-29.18 341.32-29.7 339.47-29.7L339.47-29.7Q338.37-29.7 337.54-29.7 336.72-29.7 336.12-29.65L336.12-29.65ZM356.92 0L356.92-33.85 377.02-33.85 377.02-29.35 362.87-29.35 362.87-19.9 374.52-19.9 373.77-15.35 362.87-15.35 362.87-4.5 377.77-4.5 377.77 0 356.92 0ZM382.56 0L382.56-33.85Q382.91-33.85 384.16-33.88 385.41-33.9 386.96-33.9 388.51-33.9 390.06-33.93 391.61-33.95 392.61-33.95L392.61-33.95Q398.81-33.95 401.66-31.53 404.51-29.1 404.51-24.7L404.51-24.7Q404.51-21.8 403.06-19.55 401.61-17.3 398.31-16.3L398.31-16.3Q399.71-15.5 400.81-14.1 401.91-12.7 402.96-10.68 404.01-8.65 405.11-5.98 406.21-3.3 407.66 0L407.66 0 401.21 0Q399.51-3.95 398.24-6.75 396.96-9.55 395.76-11.3 394.56-13.05 393.19-13.85 391.81-14.65 389.96-14.65L389.96-14.65 388.51-14.65 388.51 0 382.56 0ZM388.51-29.7L388.51-19 392.36-19Q395.16-19 396.69-20.25 398.21-21.5 398.21-23.95L398.21-23.95Q398.21-25.05 397.91-26.1 397.61-27.15 396.89-27.95 396.16-28.75 394.94-29.23 393.71-29.7 391.86-29.7L391.86-29.7 388.51-29.7Z" opacity="1" transform="matrix(1,0,0,1,0,0)" fill="#ffdb99" class="undefined-text-0" data-fill-palette-color="primary" id="text-0"></path></svg></g></svg></g><g transform="matrix(1,0,0,1,75.54432,54.26835225102943)"><svg viewBox="0 0 244.43135999999998 22.2392284596488" height="22.2392284596488" width="244.43135999999998"><g transform="matrix(1,0,0,1,0,0)"><svg width="244.43135999999998" viewBox="2.05 -40.5 549.48 50" height="22.2392284596488" data-palette-color="#5928d7"><path d="M11.3 0.45L11.3 0.45Q7.95 0.45 5.93-0.83 3.9-2.1 2.98-4.48 2.05-6.85 2.05-10.1L2.05-10.1 2.05-18.8Q2.05-22.15 2.98-24.5 3.9-26.85 5.95-28.1 8-29.35 11.3-29.35L11.3-29.35Q14.4-29.35 16.38-28.38 18.35-27.4 19.25-25.43 20.15-23.45 20.15-20.45L20.15-20.45 20.15-18.05 13.75-18.05 13.75-20.6Q13.75-22.1 13.53-22.98 13.3-23.85 12.75-24.23 12.2-24.6 11.3-24.6L11.3-24.6Q10.4-24.6 9.85-24.13 9.3-23.65 9.08-22.6 8.85-21.55 8.85-19.7L8.85-19.7 8.85-9.1Q8.85-6.3 9.45-5.33 10.05-4.35 11.35-4.35L11.35-4.35Q12.35-4.35 12.88-4.8 13.4-5.25 13.58-6.13 13.75-7 13.75-8.25L13.75-8.25 13.75-11.35 20.15-11.35 20.15-8.6Q20.15-5.7 19.23-3.65 18.3-1.6 16.32-0.58 14.35 0.45 11.3 0.45ZM33.35 0.45L33.35 0.45Q30.2 0.45 28.15-0.73 26.1-1.9 25.07-4.15 24.05-6.4 24.05-9.6L24.05-9.6 24.05-19.3Q24.05-22.5 25.07-24.75 26.1-27 28.15-28.18 30.2-29.35 33.35-29.35L33.35-29.35Q36.5-29.35 38.57-28.18 40.65-27 41.67-24.75 42.7-22.5 42.7-19.3L42.7-19.3 42.7-9.6Q42.7-6.4 41.67-4.15 40.65-1.9 38.57-0.73 36.5 0.45 33.35 0.45ZM33.4-4.25L33.4-4.25Q34.55-4.25 35.1-4.9 35.65-5.55 35.8-6.68 35.95-7.8 35.95-9.15L35.95-9.15 35.95-19.75Q35.95-21.1 35.8-22.2 35.65-23.3 35.1-23.98 34.55-24.65 33.4-24.65L33.4-24.65Q32.25-24.65 31.7-23.98 31.15-23.3 30.97-22.2 30.8-21.1 30.8-19.75L30.8-19.75 30.8-9.15Q30.8-7.8 30.97-6.68 31.15-5.55 31.7-4.9 32.25-4.25 33.4-4.25ZM54.15 0L47.35 0 47.35-28.9 54.15-28.9 54.15-26Q55.7-27.5 57.42-28.43 59.15-29.35 61.15-29.35L61.15-29.35Q62.95-29.35 64-28.48 65.05-27.6 65.55-26.15 66.05-24.7 66.05-23L66.05-23 66.05 0 59.25 0 59.25-21.65Q59.25-22.95 58.85-23.65 58.45-24.35 57.3-24.35L57.3-24.35Q56.6-24.35 55.77-23.95 54.95-23.55 54.15-22.95L54.15-22.95 54.15 0ZM78.89 0.45L78.89 0.45Q75.24 0.45 72.89-1.5 70.54-3.45 69.54-7.2L69.54-7.2 74.59-9.15Q75.19-6.8 76.19-5.55 77.19-4.3 78.79-4.3L78.79-4.3Q79.99-4.3 80.59-4.9 81.19-5.5 81.19-6.55L81.19-6.55Q81.19-7.75 80.47-8.72 79.74-9.7 77.99-11.15L77.99-11.15 74.49-14.1Q72.59-15.75 71.42-17.48 70.24-19.2 70.24-21.8L70.24-21.8Q70.24-24.15 71.32-25.83 72.39-27.5 74.27-28.43 76.14-29.35 78.44-29.35L78.44-29.35Q81.94-29.35 84.07-27.28 86.19-25.2 86.79-21.85L86.79-21.85 82.34-19.95Q82.09-21.15 81.62-22.18 81.14-23.2 80.39-23.85 79.64-24.5 78.64-24.5L78.64-24.5Q77.59-24.5 76.97-23.85 76.34-23.2 76.34-22.2L76.34-22.2Q76.34-21.35 77.07-20.45 77.79-19.55 79.14-18.4L79.14-18.4 82.69-15.2Q83.84-14.2 84.89-13.05 85.94-11.9 86.64-10.48 87.34-9.05 87.34-7.2L87.34-7.2Q87.34-4.7 86.22-3 85.09-1.3 83.17-0.43 81.24 0.45 78.89 0.45ZM99.39 0.35L99.39 0.35Q96.64 0.35 95.07-0.55 93.49-1.45 92.84-3.15 92.19-4.85 92.19-7.2L92.19-7.2 92.19-24.4 89.29-24.4 89.29-28.9 92.19-28.9 92.19-37.55 99.04-37.55 99.04-28.9 103.44-28.9 103.44-24.4 99.04-24.4 99.04-7.8Q99.04-6.3 99.69-5.68 100.34-5.05 101.64-5.05L101.64-5.05Q102.19-5.05 102.72-5.1 103.24-5.15 103.74-5.2L103.74-5.2 103.74 0Q102.89 0.1 101.77 0.23 100.64 0.35 99.39 0.35ZM114.59 0L107.79 0 107.79-28.9 114.59-28.9 114.59-24.45Q116.09-27 117.59-28.13 119.09-29.25 120.89-29.25L120.89-29.25Q121.19-29.25 121.41-29.23 121.64-29.2 121.94-29.15L121.94-29.15 121.94-22.1Q121.34-22.35 120.61-22.53 119.89-22.7 119.14-22.7L119.14-22.7Q117.79-22.7 116.69-22.05 115.59-21.4 114.59-19.9L114.59-19.9 114.59 0ZM129.94 0.45L129.94 0.45Q128.24 0.45 127.14-0.43 126.04-1.3 125.54-2.78 125.04-4.25 125.04-5.9L125.04-5.9 125.04-28.9 131.84-28.9 131.84-7.15Q131.84-5.85 132.26-5.13 132.69-4.4 133.84-4.4L133.84-4.4Q134.59-4.4 135.36-4.8 136.14-5.2 136.89-5.75L136.89-5.75 136.89-28.9 143.69-28.9 143.69 0 136.89 0 136.89-2.75Q135.44-1.35 133.69-0.45 131.94 0.45 129.94 0.45ZM155.93 0L149.13 0 149.13-28.9 155.93-28.9 155.93 0ZM155.93-33.5L149.13-33.5 149.13-39.15 155.93-39.15 155.93-33.5ZM168.13 0L161.33 0 161.33-28.9 168.13-28.9 168.13-26Q169.68-27.5 171.41-28.43 173.13-29.35 175.13-29.35L175.13-29.35Q176.93-29.35 177.98-28.48 179.03-27.6 179.53-26.15 180.03-24.7 180.03-23L180.03-23 180.03 0 173.23 0 173.23-21.65Q173.23-22.95 172.83-23.65 172.43-24.35 171.28-24.35L171.28-24.35Q170.58-24.35 169.76-23.95 168.93-23.55 168.13-22.95L168.13-22.95 168.13 0ZM191.53 0.45L191.53 0.45Q188.08 0.45 186.3-2 184.53-4.45 184.53-9.85L184.53-9.85 184.53-18.7Q184.53-21.7 185.2-24.1 185.88-26.5 187.38-27.93 188.88-29.35 191.43-29.35L191.43-29.35Q192.98-29.35 194.3-28.73 195.63-28.1 196.73-27.1L196.73-27.1 196.73-40.5 203.53-40.5 203.53 0 196.73 0 196.73-2.05Q195.58-0.9 194.28-0.23 192.98 0.45 191.53 0.45ZM194.03-4.25L194.03-4.25Q194.58-4.25 195.28-4.5 195.98-4.75 196.73-5.2L196.73-5.2 196.73-23.75Q196.13-24.15 195.43-24.43 194.73-24.7 193.98-24.7L193.98-24.7Q192.53-24.7 191.95-23.38 191.38-22.05 191.38-20.15L191.38-20.15 191.38-9.35Q191.38-7.9 191.58-6.75 191.78-5.6 192.35-4.93 192.93-4.25 194.03-4.25ZM217.43 0.45L217.43 0.45Q214.28 0.45 212.23-0.73 210.18-1.9 209.15-4.15 208.13-6.4 208.13-9.6L208.13-9.6 208.13-19.3Q208.13-22.5 209.15-24.75 210.18-27 212.23-28.18 214.28-29.35 217.43-29.35L217.43-29.35Q220.58-29.35 222.65-28.18 224.73-27 225.75-24.75 226.78-22.5 226.78-19.3L226.78-19.3 226.78-9.6Q226.78-6.4 225.75-4.15 224.73-1.9 222.65-0.73 220.58 0.45 217.43 0.45ZM217.48-4.25L217.48-4.25Q218.63-4.25 219.18-4.9 219.73-5.55 219.88-6.68 220.03-7.8 220.03-9.15L220.03-9.15 220.03-19.75Q220.03-21.1 219.88-22.2 219.73-23.3 219.18-23.98 218.63-24.65 217.48-24.65L217.48-24.65Q216.33-24.65 215.78-23.98 215.23-23.3 215.05-22.2 214.88-21.1 214.88-19.75L214.88-19.75 214.88-9.15Q214.88-7.8 215.05-6.68 215.23-5.55 215.78-4.9 216.33-4.25 217.48-4.25ZM251.42 0.45L251.42 0.45Q247.77 0.45 245.42-1.5 243.07-3.45 242.07-7.2L242.07-7.2 247.12-9.15Q247.72-6.8 248.72-5.55 249.72-4.3 251.32-4.3L251.32-4.3Q252.52-4.3 253.12-4.9 253.72-5.5 253.72-6.55L253.72-6.55Q253.72-7.75 253-8.72 252.27-9.7 250.52-11.15L250.52-11.15 247.02-14.1Q245.12-15.75 243.95-17.48 242.77-19.2 242.77-21.8L242.77-21.8Q242.77-24.15 243.85-25.83 244.92-27.5 246.8-28.43 248.67-29.35 250.97-29.35L250.97-29.35Q254.47-29.35 256.6-27.28 258.72-25.2 259.32-21.85L259.32-21.85 254.87-19.95Q254.62-21.15 254.15-22.18 253.67-23.2 252.92-23.85 252.17-24.5 251.17-24.5L251.17-24.5Q250.12-24.5 249.5-23.85 248.87-23.2 248.87-22.2L248.87-22.2Q248.87-21.35 249.6-20.45 250.32-19.55 251.67-18.4L251.67-18.4 255.22-15.2Q256.37-14.2 257.42-13.05 258.47-11.9 259.17-10.48 259.87-9.05 259.87-7.2L259.87-7.2Q259.87-4.7 258.75-3 257.62-1.3 255.7-0.43 253.77 0.45 251.42 0.45ZM270.57 0L263.77 0 263.77-28.9 270.57-28.9 270.57 0ZM270.57-33.5L263.77-33.5 263.77-39.15 270.57-39.15 270.57-33.5ZM284.32 0.35L284.32 0.35Q281.57 0.35 279.99-0.55 278.42-1.45 277.77-3.15 277.12-4.85 277.12-7.2L277.12-7.2 277.12-24.4 274.22-24.4 274.22-28.9 277.12-28.9 277.12-37.55 283.97-37.55 283.97-28.9 288.37-28.9 288.37-24.4 283.97-24.4 283.97-7.8Q283.97-6.3 284.62-5.68 285.27-5.05 286.57-5.05L286.57-5.05Q287.12-5.05 287.64-5.1 288.17-5.15 288.67-5.2L288.67-5.2 288.67 0Q287.82 0.1 286.69 0.23 285.57 0.35 284.32 0.35ZM301.31 0.45L301.31 0.45Q298.06 0.45 296.01-0.78 293.96-2 292.99-4.38 292.01-6.75 292.01-10.1L292.01-10.1 292.01-18.8Q292.01-22.25 292.99-24.6 293.96-26.95 296.04-28.15 298.11-29.35 301.31-29.35L301.31-29.35Q304.76-29.35 306.69-28.05 308.61-26.75 309.44-24.28 310.26-21.8 310.26-18.25L310.26-18.25 310.26-14.15 298.76-14.15 298.76-8.45Q298.76-7.05 299.04-6.15 299.31-5.25 299.91-4.85 300.51-4.45 301.36-4.45L301.36-4.45Q302.26-4.45 302.81-4.88 303.36-5.3 303.61-6.13 303.86-6.95 303.86-8.2L303.86-8.2 303.86-10.6 310.21-10.6 310.21-8.65Q310.21-4.25 308.01-1.9 305.81 0.45 301.31 0.45ZM298.76-19.5L298.76-17.5 303.86-17.5 303.86-20.25Q303.86-21.75 303.61-22.68 303.36-23.6 302.81-24.03 302.26-24.45 301.26-24.45L301.26-24.45Q300.36-24.45 299.81-24 299.26-23.55 299.01-22.5 298.76-21.45 298.76-19.5L298.76-19.5ZM322.71 0.45L322.71 0.45Q319.06 0.45 316.71-1.5 314.36-3.45 313.36-7.2L313.36-7.2 318.41-9.15Q319.01-6.8 320.01-5.55 321.01-4.3 322.61-4.3L322.61-4.3Q323.81-4.3 324.41-4.9 325.01-5.5 325.01-6.55L325.01-6.55Q325.01-7.75 324.29-8.72 323.56-9.7 321.81-11.15L321.81-11.15 318.31-14.1Q316.41-15.75 315.24-17.48 314.06-19.2 314.06-21.8L314.06-21.8Q314.06-24.15 315.14-25.83 316.21-27.5 318.09-28.43 319.96-29.35 322.26-29.35L322.26-29.35Q325.76-29.35 327.89-27.28 330.01-25.2 330.61-21.85L330.61-21.85 326.16-19.95Q325.91-21.15 325.44-22.18 324.96-23.2 324.21-23.85 323.46-24.5 322.46-24.5L322.46-24.5Q321.41-24.5 320.79-23.85 320.16-23.2 320.16-22.2L320.16-22.2Q320.16-21.35 320.89-20.45 321.61-19.55 322.96-18.4L322.96-18.4 326.51-15.2Q327.66-14.2 328.71-13.05 329.76-11.9 330.46-10.48 331.16-9.05 331.16-7.2L331.16-7.2Q331.16-4.7 330.04-3 328.91-1.3 326.99-0.43 325.06 0.45 322.71 0.45ZM353.81 9.5L347.01 9.5 347.01-28.9 353.81-28.9 353.81-26.7Q355.06-27.9 356.56-28.63 358.06-29.35 359.71-29.35L359.71-29.35Q361.66-29.35 362.91-28.45 364.16-27.55 364.86-26.08 365.56-24.6 365.83-22.93 366.11-21.25 366.11-19.7L366.11-19.7 366.11-9.9Q366.11-7.05 365.43-4.7 364.76-2.35 363.28-0.95 361.81 0.45 359.36 0.45L359.36 0.45Q357.81 0.45 356.43-0.3 355.06-1.05 353.81-2.2L353.81-2.2 353.81 9.5ZM356.81-4.3L356.81-4.3Q357.91-4.3 358.43-5.03 358.96-5.75 359.13-6.98 359.31-8.2 359.31-9.65L359.31-9.65 359.31-20Q359.31-21.35 359.11-22.43 358.91-23.5 358.36-24.15 357.81-24.8 356.76-24.8L356.76-24.8Q355.96-24.8 355.18-24.43 354.41-24.05 353.81-23.55L353.81-23.55 353.81-5.3Q354.46-4.85 355.21-4.58 355.96-4.3 356.81-4.3ZM376.4 0.45L376.4 0.45Q374.45 0.45 373.05-0.58 371.65-1.6 370.9-3.18 370.15-4.75 370.15-6.45L370.15-6.45Q370.15-9.15 371.15-11 372.15-12.85 373.8-14.1 375.45-15.35 377.55-16.28 379.65-17.2 381.8-17.95L381.8-17.95 381.8-20.45Q381.8-21.7 381.63-22.55 381.45-23.4 380.98-23.85 380.5-24.3 379.5-24.3L379.5-24.3Q378.65-24.3 378.13-23.9 377.6-23.5 377.38-22.78 377.15-22.05 377.1-21.1L377.1-21.1 377-19.35 370.55-19.6Q370.7-24.6 373.03-26.98 375.35-29.35 380.1-29.35L380.1-29.35Q384.45-29.35 386.43-26.95 388.4-24.55 388.4-20.45L388.4-20.45 388.4-7.1Q388.4-5.5 388.48-4.2 388.55-2.9 388.68-1.85 388.8-0.8 388.9 0L388.9 0 382.8 0Q382.65-1 382.43-2.27 382.2-3.55 382.1-4.15L382.1-4.15Q381.6-2.4 380.2-0.98 378.8 0.45 376.4 0.45ZM378.9-4.6L378.9-4.6Q379.55-4.6 380.13-4.93 380.7-5.25 381.15-5.7 381.6-6.15 381.8-6.5L381.8-6.5 381.8-14.55Q380.7-13.9 379.73-13.25 378.75-12.6 378.03-11.83 377.3-11.05 376.93-10.15 376.55-9.25 376.55-8.05L376.55-8.05Q376.55-6.45 377.18-5.53 377.8-4.6 378.9-4.6ZM400.35 0L393.55 0 393.55-28.9 400.35-28.9 400.35-24.45Q401.85-27 403.35-28.13 404.85-29.25 406.65-29.25L406.65-29.25Q406.95-29.25 407.18-29.23 407.4-29.2 407.7-29.15L407.7-29.15 407.7-22.1Q407.1-22.35 406.38-22.53 405.65-22.7 404.9-22.7L404.9-22.7Q403.55-22.7 402.45-22.05 401.35-21.4 400.35-19.9L400.35-19.9 400.35 0ZM416.55 0.45L416.55 0.45Q414.6 0.45 413.2-0.58 411.8-1.6 411.05-3.18 410.3-4.75 410.3-6.45L410.3-6.45Q410.3-9.15 411.3-11 412.3-12.85 413.95-14.1 415.6-15.35 417.7-16.28 419.8-17.2 421.95-17.95L421.95-17.95 421.95-20.45Q421.95-21.7 421.77-22.55 421.6-23.4 421.12-23.85 420.65-24.3 419.65-24.3L419.65-24.3Q418.8-24.3 418.27-23.9 417.75-23.5 417.52-22.78 417.3-22.05 417.25-21.1L417.25-21.1 417.15-19.35 410.7-19.6Q410.85-24.6 413.17-26.98 415.5-29.35 420.25-29.35L420.25-29.35Q424.6-29.35 426.57-26.95 428.55-24.55 428.55-20.45L428.55-20.45 428.55-7.1Q428.55-5.5 428.62-4.2 428.7-2.9 428.82-1.85 428.95-0.8 429.05 0L429.05 0 422.95 0Q422.8-1 422.57-2.27 422.35-3.55 422.25-4.15L422.25-4.15Q421.75-2.4 420.35-0.98 418.95 0.45 416.55 0.45ZM419.05-4.6L419.05-4.6Q419.7-4.6 420.27-4.93 420.85-5.25 421.3-5.7 421.75-6.15 421.95-6.5L421.95-6.5 421.95-14.55Q420.85-13.9 419.87-13.25 418.9-12.6 418.17-11.83 417.45-11.05 417.07-10.15 416.7-9.25 416.7-8.05L416.7-8.05Q416.7-6.45 417.32-5.53 417.95-4.6 419.05-4.6ZM451.29 0.45L451.29 0.45Q449.34 0.45 447.94-0.58 446.54-1.6 445.79-3.18 445.04-4.75 445.04-6.45L445.04-6.45Q445.04-9.15 446.04-11 447.04-12.85 448.69-14.1 450.34-15.35 452.44-16.28 454.54-17.2 456.69-17.95L456.69-17.95 456.69-20.45Q456.69-21.7 456.52-22.55 456.34-23.4 455.87-23.85 455.39-24.3 454.39-24.3L454.39-24.3Q453.54-24.3 453.02-23.9 452.49-23.5 452.27-22.78 452.04-22.05 451.99-21.1L451.99-21.1 451.89-19.35 445.44-19.6Q445.59-24.6 447.92-26.98 450.24-29.35 454.99-29.35L454.99-29.35Q459.34-29.35 461.32-26.95 463.29-24.55 463.29-20.45L463.29-20.45 463.29-7.1Q463.29-5.5 463.37-4.2 463.44-2.9 463.57-1.85 463.69-0.8 463.79 0L463.79 0 457.69 0Q457.54-1 457.32-2.27 457.09-3.55 456.99-4.15L456.99-4.15Q456.49-2.4 455.09-0.98 453.69 0.45 451.29 0.45ZM453.79-4.6L453.79-4.6Q454.44-4.6 455.02-4.93 455.59-5.25 456.04-5.7 456.49-6.15 456.69-6.5L456.69-6.5 456.69-14.55Q455.59-13.9 454.62-13.25 453.64-12.6 452.92-11.83 452.19-11.05 451.82-10.15 451.44-9.25 451.44-8.05L451.44-8.05Q451.44-6.45 452.07-5.53 452.69-4.6 453.79-4.6ZM489.39 0L483.49 0 479.04-28.9 484.69-28.9 487.24-10.15 490.24-28.9 495.29-28.9 498.14-9.95 500.89-28.9 506.24-28.9 501.69 0 495.94 0 492.74-18.25 489.39 0ZM518.84 0.45L518.84 0.45Q515.59 0.45 513.54-0.78 511.49-2 510.51-4.38 509.54-6.75 509.54-10.1L509.54-10.1 509.54-18.8Q509.54-22.25 510.51-24.6 511.49-26.95 513.56-28.15 515.64-29.35 518.84-29.35L518.84-29.35Q522.29-29.35 524.21-28.05 526.14-26.75 526.96-24.28 527.79-21.8 527.79-18.25L527.79-18.25 527.79-14.15 516.29-14.15 516.29-8.45Q516.29-7.05 516.56-6.15 516.84-5.25 517.44-4.85 518.04-4.45 518.89-4.45L518.89-4.45Q519.79-4.45 520.34-4.88 520.89-5.3 521.14-6.13 521.39-6.95 521.39-8.2L521.39-8.2 521.39-10.6 527.74-10.6 527.74-8.65Q527.74-4.25 525.54-1.9 523.34 0.45 518.84 0.45ZM516.29-19.5L516.29-17.5 521.39-17.5 521.39-20.25Q521.39-21.75 521.14-22.68 520.89-23.6 520.34-24.03 519.79-24.45 518.79-24.45L518.79-24.45Q517.89-24.45 517.34-24 516.79-23.55 516.54-22.5 516.29-21.45 516.29-19.5L516.29-19.5ZM544.83 0.45L544.83 0.45Q543.23 0.45 541.83-0.3 540.43-1.05 539.23-2.15L539.23-2.15 539.23 0 532.43 0 532.43-40.5 539.23-40.5 539.23-26.7Q540.48-27.9 541.96-28.63 543.43-29.35 545.13-29.35L545.13-29.35Q547.08-29.35 548.33-28.45 549.58-27.55 550.28-26.08 550.98-24.6 551.26-22.93 551.53-21.25 551.53-19.7L551.53-19.7 551.53-9.9Q551.53-7.05 550.86-4.7 550.18-2.35 548.71-0.95 547.23 0.45 544.83 0.45ZM542.23-4.3L542.23-4.3Q543.33-4.3 543.86-5.03 544.38-5.75 544.56-6.98 544.73-8.2 544.73-9.65L544.73-9.65 544.73-20Q544.73-21.35 544.53-22.43 544.33-23.5 543.81-24.15 543.28-24.8 542.18-24.8L542.18-24.8Q541.38-24.8 540.63-24.43 539.88-24.05 539.23-23.6L539.23-23.6 539.23-5.35Q539.88-4.9 540.66-4.6 541.43-4.3 542.23-4.3Z" opacity="1" transform="matrix(1,0,0,1,0,0)" fill="#5928d7" class="undefined-text-1" data-fill-palette-color="secondary" id="text-1"></path></svg></g></svg></g></svg></g></svg></g><g transform="matrix(1,0,0,1,84.28725407449376,0)"><svg viewBox="0 0 226.94549185101246 105.73347654215732" height="105.73347654215732" width="226.94549185101246"><g><svg xmlns="http://www.w3.org/2000/svg" xmlns:xlink="http://www.w3.org/1999/xlink" xml:space="preserve" style="shape-rendering:geometricPrecision;text-rendering:geometricPrecision;image-rendering:optimizeQuality;" viewBox="0.0000020000000000575113 0.0000027841116459863258 14.727499 7.381952827609914" x="8" y="0" fill-rule="evenodd" clip-rule="evenodd" width="210.94549185101246" height="105.73347654215732" class="icon-icon-0" data-fill-palette-color="accent" id="icon-0"><g fill="#5928d7" data-fill-palette-color="accent"><path class="" d="M1.757 3.091c-0.313 0.444-0.296 1.331-0.417 1.95-0.153 0.784-0.711 1.203-1.34 1.534 0.188-0.771 0.348-1.542 0.412-2.313 0.078-0.953-0.06-0.891 0.767-1.575 1.159-0.961 3.04-1.741 5.848-2.29 2.456-0.406 5.049-0.453 7.701-0.351-0.89 1.809-3.733 1.961-7.203 1.581-1.811 0.02-3.495-0.488-5.768 1.464z m8.33 2.781c-3.895 2.038-7.803-2.284-9.165 0.688 2.104-1.831 5.079 3.183 9.165-0.688z m2.489-2.547c-4.49 2.72-9.502-0.792-10.907 1.859 3.412-1.235 7.765 2.753 10.907-1.859z m0.834-1.478c-3.944 1.761-10.043-1.402-11.565 2.239 3.106-1.808 8.446 1.438 11.565-2.239z" fill="#5928d7" data-fill-palette-color="accent"></path></g></svg></g></svg></g><g><rect width="84.28725407449376" height="3.959284065815821" y="100.7741924763415" x="311.2327459255062" fill="#5928d7" data-fill-palette-color="accent"></rect><rect width="84.28725407449376" height="3.959284065815821" y="100.7741924763415" x="0" fill="#5928d7" data-fill-palette-color="accent"></rect><rect width="84.28725407449376" height="3.959284065815821" y="92.85562434470985" x="311.2327459255062" fill="#5928d7" data-fill-palette-color="accent"></rect><rect width="84.28725407449376" height="3.959284065815821" y="92.85562434470985" x="0" fill="#5928d7" data-fill-palette-color="accent"></rect></g></svg></g></svg><rect width="395.52" height="192.60567522617538" fill="none" stroke="none" visibility="hidden"></rect></g></svg></g></svg>