<svg xmlns="http://www.w3.org/2000/svg" version="1.1" xmlns:xlink="http://www.w3.org/1999/xlink" xmlns:svgjs="http://svgjs.dev/svgjs" width="1000" height="290" viewBox="0 0 1000 290"><g transform="matrix(1,0,0,1,-0.6060517001390622,0.37600284331080047)"><svg viewBox="0 0 396 115" data-background-color="#ffffff" preserveAspectRatio="xMidYMid meet" height="290" width="1000" xmlns="http://www.w3.org/2000/svg" xmlns:xlink="http://www.w3.org/1999/xlink"><defs></defs><g id="tight-bounds" transform="matrix(1,0,0,1,0.23999647325507567,-0.14910457579566128)"><svg viewBox="0 0 395.52 115.29820915159131" height="115.29820915159131" width="395.52"><g><svg viewBox="0 0 607.2994049133266 177.0341166194723" height="115.29820915159131" width="395.52"><g transform="matrix(1,0,0,1,211.77940491332663,51.722457954496356)"><svg viewBox="0 0 395.52 73.58920071047957" height="73.58920071047957" width="395.52"><g><svg viewBox="0 0 395.52 73.58920071047957" height="73.58920071047957" width="395.52"><g><svg viewBox="0 0 395.52 73.58920071047957" height="73.58920071047957" width="395.52"><g transform="matrix(1,0,0,1,0,0)"><svg width="395.52" viewBox="0.25 -35.04999923706055 222.89999389648438 41.89999771118164" height="73.58920071047957" data-palette-color="#6936f5"><g class="undefined-text-0" data-fill-palette-color="primary" id="text-0"><path d="M10.5-34.45L10.5-4.8Q10.5 0.3 8.28 2.85 6.05 5.4 1.5 6.85L1.5 6.85 0.25 3.4Q2.55 2.5 3.7 1.45 4.85 0.4 5.3-1.1 5.75-2.6 5.75-5L5.75-5 5.75-34.45 10.5-34.45ZM28.75-35.05Q32.2-35.05 34.65-34.08 37.1-33.1 39.4-31.05L39.4-31.05 36.8-28.15Q34.85-29.7 32.97-30.43 31.1-31.15 28.95-31.15L28.95-31.15Q26.25-31.15 24.5-29.9 22.75-28.65 22.75-26.25L22.75-26.25Q22.75-24.75 23.35-23.73 23.95-22.7 25.57-21.85 27.2-21 30.3-20.05L30.3-20.05Q33.55-19.05 35.7-17.9 37.85-16.75 39.17-14.73 40.5-12.7 40.5-9.6L40.5-9.6Q40.5-6.6 39.02-4.3 37.55-2 34.77-0.7 32 0.6 28.2 0.6L28.2 0.6Q21.05 0.6 16.5-3.85L16.5-3.85 19.1-6.75Q21.2-5.05 23.35-4.17 25.5-3.3 28.15-3.3L28.15-3.3Q31.35-3.3 33.45-4.88 35.55-6.45 35.55-9.45L35.55-9.45Q35.55-11.15 34.9-12.28 34.25-13.4 32.67-14.3 31.1-15.2 28.1-16.1L28.1-16.1Q22.8-17.7 20.35-19.95 17.9-22.2 17.9-26.05L17.9-26.05Q17.9-28.65 19.27-30.7 20.65-32.75 23.12-33.9 25.6-35.05 28.75-35.05L28.75-35.05Z" fill="#6936f5" data-fill-palette-color="primary"></path><path d="M52.7-34.45Q60.5-34.45 65.23-30.83 69.95-27.2 69.95-17.4L69.95-17.4Q69.95-7.85 65.23-3.93 60.5 0 53.75 0L53.75 0 45.5 0 45.5-34.45 52.7-34.45ZM53.75-30.65L50.25-30.65 50.25-3.75 54.1-3.75Q58.9-3.75 61.9-6.7 64.9-9.65 64.9-17.4L64.9-17.4Q64.9-22.85 63.35-25.78 61.8-28.7 59.4-29.68 57-30.65 53.75-30.65L53.75-30.65ZM77.7-34.45L96.35-34.45 95.8-30.65 82.45-30.65 82.45-19.4 94.05-19.4 94.05-15.6 82.45-15.6 82.45-3.8 96.75-3.8 96.75 0 77.7 0 77.7-34.45ZM122.15-34.45L126.95-34.45 115.95 0 110.85 0 99.75-34.45 104.85-34.45 113.5-5.15 122.15-34.45Z" fill="#bb84e8" data-fill-palette-color="secondary"></path><path d="M162.65-34.45L167-34.45 160 0 153.9 0 147.55-28.85 141.15 0 135.2 0 128.2-34.45 132.85-34.45 138.4-4.15 145.05-34.45 150.1-34.45 156.9-4.15 162.65-34.45ZM173.25-34.45L191.9-34.45 191.35-30.65 178-30.65 178-19.4 189.6-19.4 189.6-15.6 178-15.6 178-3.8 192.3-3.8 192.3 0 173.25 0 173.25-34.45ZM215.2-18.2Q218.75-17.6 220.95-15.7 223.15-13.8 223.15-9.8L223.15-9.8Q223.15 0 209.5 0L209.5 0 200 0 200-34.45 208.15-34.45Q214.7-34.45 218.17-32.3 221.65-30.15 221.65-25.75L221.65-25.75Q221.65-22.75 219.77-20.75 217.9-18.75 215.2-18.2L215.2-18.2ZM208.65-30.7L204.75-30.7 204.75-19.85 209.95-19.85Q212.95-19.85 214.87-21.3 216.8-22.75 216.8-25.4L216.8-25.4Q216.8-28.4 214.77-29.55 212.75-30.7 208.65-30.7L208.65-30.7ZM209.5-3.8Q213.7-3.8 215.92-5.05 218.15-6.3 218.15-9.8L218.15-9.8Q218.15-13.2 216-14.7 213.85-16.2 210.4-16.2L210.4-16.2 204.75-16.2 204.75-3.8 209.5-3.8Z" fill="#6936f5" data-fill-palette-color="primary"></path></g></svg></g></svg></g></svg></g></svg></g><g><svg viewBox="0 0 177.0341166194723 177.0341166194723" height="177.0341166194723" width="177.0341166194723"><g><svg></svg></g><g id="icon-0"><svg viewBox="0 0 177.0341166194723 177.0341166194723" height="177.0341166194723" width="177.0341166194723"><g><path d="M0 88.517c0-48.887 39.63-88.517 88.517-88.517 48.887 0 88.517 39.63 88.517 88.517 0 48.887-39.63 88.517-88.517 88.517-48.887 0-88.517-39.63-88.517-88.517zM88.517 170.398c45.221 0 81.881-36.659 81.881-81.881 0-45.221-36.659-81.881-81.881-81.881-45.221 0-81.881 36.659-81.881 81.881 0 45.221 36.659 81.881 81.881 81.881z" data-fill-palette-color="accent" fill="#bb84e8" stroke="transparent"></path></g><g transform="matrix(1,0,0,1,51.53363154600907,39.2606078704406)"><svg viewBox="0 0 73.96685352745415 98.51290087859108" height="98.51290087859108" width="73.96685352745415"><g><svg xmlns="http://www.w3.org/2000/svg" xmlns:xlink="http://www.w3.org/1999/xlink" version="1.1" x="0" y="0" viewBox="16.299999237060547 5.099999904632568 67.5 89.90000915527344" style="enable-background:new 0 0 100 100;" xml:space="preserve" height="98.51290087859108" width="73.96685352745415" class="icon-x-0" data-fill-palette-color="accent" id="x-0"><g fill="#bb84e8" data-fill-palette-color="accent"><g fill="#bb84e8" data-fill-palette-color="accent"><path d="M83.7 26.3c0-0.8-0.3-1.6-0.9-2.2L66 6.1c-0.6-0.7-1.5-1-2.4-1h-42c-2.9 0-5.3 2.4-5.3 5.3v79.3c0 2.9 2.4 5.3 5.3 5.3h56.9c2.9 0 5.3-2.4 5.3-5.3L83.7 26.3zM78.4 91H21.6c-0.7 0-1.3-0.6-1.3-1.3V10.4c0-0.7 0.6-1.3 1.3-1.3h41.3V21c0 3.2 2.6 5.8 5.8 5.8h11.1l0 62.9C79.7 90.4 79.1 91 78.4 91z" fill="#bb84e8" data-fill-palette-color="accent"></path><path d="M35.7 60.9h-4.2c-0.8 0-1.2 0.4-1.2 1.2v12.7c0 0.8 0.4 1.2 1.2 1.2h4.2c4.7 0 7.7-2.8 7.7-7.5C43.5 63.7 40.4 60.9 35.7 60.9zM35.6 72.8h-1.5v-8.7h1.5c2.5 0 4.1 1.5 4.1 4.3C39.7 71.3 38.1 72.8 35.6 72.8z" fill="#bb84e8" data-fill-palette-color="accent"></path><path d="M54.8 60.9h-5.4c-0.8 0-1.2 0.4-1.2 1.2v0.8c0 0.8 0.4 1.2 1.2 1.2h2.9v7.2c0 1.1-0.5 1.6-1.3 1.6-0.9 0-1.3-0.8-1.4-1.5-0.1-0.8-0.4-1.1-1.1-1.1h-1.4c-0.8 0-1.2 0.4-1.2 1.2 0 3.1 2.5 4.8 5 4.8 2.5 0 5-1.6 5-4.9v-9.2C56 61.3 55.6 60.9 54.8 60.9z" fill="#bb84e8" data-fill-palette-color="accent"></path><path d="M71.5 60.9H70c-0.7 0-1.1 0.3-1.3 1l-2.4 7.6c-0.3 0.9-0.6 2.4-0.6 2.4h0c0 0-0.3-1.5-0.6-2.4l-2.4-7.6c-0.2-0.7-0.6-1-1.3-1h-1.6c-0.9 0-1.2 0.5-0.9 1.3L63.5 75c0.2 0.6 0.7 0.9 1.3 0.9h1.8c0.7 0 1.1-0.3 1.3-0.9l4.5-12.8C72.7 61.4 72.4 60.9 71.5 60.9z" fill="#bb84e8" data-fill-palette-color="accent"></path></g></g></svg></g></svg></g></svg></g></svg></g></svg></g></svg><rect width="395.52" height="115.29820915159131" fill="none" stroke="none" visibility="hidden"></rect></g></svg></g></svg>